<?xml version="1.0" encoding="UTF-8"?>
<svg width="306px" height="67px" viewBox="0 0 306 67" version="1.1" xmlns="http://www.w3.org/2000/svg" xmlns:xlink="http://www.w3.org/1999/xlink">
    <!-- Generator: Sketch 52.5 (67469) - http://www.bohemiancoding.com/sketch -->
    <title>logo</title>
    <desc>Created with Sketch.</desc>
    <g id="Page-1" stroke="none" stroke-width="1" fill="none" fill-rule="evenodd">
        <g id="Desktop-HD-Copy" transform="translate(-28.000000, -28.000000)">
            <g id="h1-copy" transform="translate(28.000000, 28.000000)">
                <path d="M10.386423,30.337229 L10.386423,19.2390902 L39.6680636,19.2390902 L39.6680636,30.2208149 L36.9314617,30.2208149 L36.9314617,28.3581902 C36.9314617,28.0089481 36.8923674,27.6985106 36.8141788,27.3880732 C36.1104811,23.5076051 34.2730484,22.1494412 29.855391,22.1494412 L27.7052038,22.1882459 L27.7052038,43.2979925 L27.7442981,43.3756018 C27.861581,43.9964767 28.2916185,44.2293048 29.9335796,44.3457189 L33.2956906,44.3457189 L33.2956906,47.1784606 L16.4851358,47.1784606 L16.4851358,44.3457189 L19.4563037,44.3457189 C19.6126809,44.3457189 19.7299638,44.3457189 19.8863411,44.3069142 C22.0365283,44.1905001 22.3101885,43.9188674 22.3492828,42.0950474 L22.3492828,22.1494412 L20.003624,22.1494412 C15.7032496,22.1882459 13.8267225,23.6628238 13.2794022,27.3880732 C13.2403078,27.77612 13.2012135,28.2029715 13.2012135,28.5910183 L13.2012135,30.337229 L10.386423,30.337229 Z M39.2771205,47.1784606 L39.2771205,44.3457189 L40.2544783,44.3457189 L40.6845158,44.3069142 C41.7009679,44.1516955 41.9355338,43.9188674 42.7565144,42.0950474 L52.8037529,19.2390902 L58.0032965,19.2390902 L67.8159692,42.0950474 C68.4805725,43.5696253 68.8715156,43.9576721 69.8097792,44.2293048 C70.1225337,44.3069142 70.2789109,44.3457189 70.3570995,44.3457189 L71.2562687,44.3457189 L71.2562687,47.1784606 L59.0197487,47.1784606 L59.0197487,44.3457189 L61.9518222,44.3457189 C62.7337085,44.3457189 62.8900857,44.1128908 62.7728028,43.3756018 L62.1863881,42.0950474 L60.427144,37.8653371 L48.3079069,37.8653371 L46.4704741,42.0950474 C46.3140969,42.4442895 46.1577196,42.7547269 46.0404367,43.1039691 C45.6885879,43.9576721 45.9622481,44.3457189 46.7832286,44.3457189 L49.7543964,44.3457189 L49.7543964,47.1784606 L39.2771205,47.1784606 Z M49.5589249,35.0325954 L59.2152203,35.0325954 L54.4066197,23.6240191 L49.5589249,35.0325954 Z M70.8653256,39.4951337 L70.8653256,35.5370562 L81.0689414,35.5370562 L81.0689414,39.4951337 L70.8653256,39.4951337 Z M81.8508276,47.1784606 L81.8508276,44.3457189 L85.4475045,44.3457189 C85.5647874,44.3457189 85.6820703,44.3457189 85.7993533,44.3069142 C86.6203339,44.1905001 86.8158054,44.0352814 87.011277,43.3367972 L87.0503713,42.0950474 L87.1285599,40.8532976 L87.1285599,24.3225034 C87.1285599,22.5374881 86.9721827,22.2270506 85.8775419,22.1106366 L81.8508276,22.1106366 L81.8508276,19.2390902 L96.6675724,19.2390902 L96.6675724,22.1106366 L93.6964046,22.1106366 C92.9145183,22.1106366 92.5626695,22.421074 92.5235752,23.0419489 L92.4844809,23.4299957 L92.4844809,33.7908456 L103.469983,24.3225034 C104.095492,23.8180425 104.369152,23.4299957 104.564624,23.0419489 C104.760095,22.5762927 104.486435,22.1882459 103.821832,22.1494412 C103.430889,22.1106366 103.000851,22.1106366 102.609908,22.1106366 L100.107872,22.1106366 L100.107872,19.2390902 L114.963711,19.2390902 L114.963711,22.1106366 L112.227109,22.1106366 C111.992543,22.1106366 111.757977,22.1106366 111.484317,22.1882459 C111.015185,22.3434646 110.819714,22.4598787 110.037828,23.0419489 L108.591338,24.3225034 L101.554362,30.2984243 L112.383486,42.0950474 L112.578958,42.2890708 L113.751787,43.4144065 C114.572768,44.1516955 114.650956,44.2293048 115.511031,44.3069142 C115.628314,44.3457189 115.706503,44.3457189 115.823786,44.3457189 L117.30937,44.3457189 L117.30937,47.1784606 L101.397984,47.1784606 L101.397984,44.3457189 L103.157228,44.3457189 C103.860926,44.3457189 104.564624,44.3069142 105.268321,44.3069142 C105.972019,44.2681095 106.323868,43.8800627 106.245679,43.4144065 C106.167491,42.987555 105.932925,42.5607035 105.502887,42.0950474 L97.488553,33.7132362 L92.4844809,38.0981652 L92.4844809,42.0950474 C92.4844809,43.9188674 92.6799524,44.1905001 94.243725,44.3069142 C94.4001022,44.3069142 94.5564795,44.3457189 94.7128567,44.3457189 L97.5276473,44.3457189 L97.5276473,47.1784606 L81.8508276,47.1784606 Z M133.768076,30.337229 L133.768076,19.2390902 L163.049716,19.2390902 L163.049716,30.2208149 L160.313114,30.2208149 L160.313114,28.3581902 C160.313114,28.0089481 160.27402,27.6985106 160.195831,27.3880732 C159.492134,23.5076051 157.654701,22.1494412 153.237044,22.1494412 L151.086856,22.1882459 L151.086856,43.2979925 L151.125951,43.3756018 C151.243234,43.9964767 151.673271,44.2293048 153.315232,44.3457189 L156.677343,44.3457189 L156.677343,47.1784606 L139.866789,47.1784606 L139.866789,44.3457189 L142.837956,44.3457189 C142.994334,44.3457189 143.111617,44.3457189 143.267994,44.3069142 C145.418181,44.1905001 145.691841,43.9188674 145.730936,42.0950474 L145.730936,22.1494412 L143.385277,22.1494412 C139.084902,22.1882459 137.208375,23.6628238 136.661055,27.3880732 C136.621961,27.77612 136.582866,28.2029715 136.582866,28.5910183 L136.582866,30.337229 L133.768076,30.337229 Z M188.148265,21.9942225 L189.00834,19.2778948 L191.627659,19.2778948 L191.627659,29.9103775 L188.656492,29.9103775 C188.656492,29.5223307 188.617397,29.1342839 188.539209,28.746237 C187.874605,24.5941362 185.255286,21.9554178 181.306761,21.2957383 C174.660727,20.1704025 169.265712,25.835886 170.673107,35.6146656 C171.454994,40.8144929 174.191596,43.9188674 177.866461,44.7337657 C183.105099,45.8979061 187.405473,43.0651644 188.421926,38.0593605 C188.500114,37.632509 188.578303,37.1668529 188.578303,36.7011967 L191.549471,36.7011967 C191.588565,37.2832669 191.549471,37.9041418 191.432188,38.486212 C190.572113,44.694961 185.216192,48.6530385 176.967292,47.7217261 C174.074313,47.4112887 171.611371,46.402367 169.539372,44.6561563 C166.450922,42.0562427 164.652583,38.1369699 164.613489,33.2475801 C164.574395,26.2627374 168.171071,21.1017148 173.878841,19.0838714 C179.234762,17.2212467 184.786155,18.5018012 188.148265,21.9942225 Z M192.409546,47.1784606 L192.409546,44.3457189 L195.497996,44.3457189 C195.615279,44.3457189 195.771657,44.3457189 195.888939,44.3069142 C197.335429,44.2293048 197.648184,43.8800627 197.648184,42.0950474 L197.648184,24.3225034 C197.648184,22.421074 197.491806,22.2270506 195.967128,22.1106366 C195.849845,22.1106366 195.693468,22.0718319 195.576185,22.0718319 L192.409546,22.0718319 L192.409546,19.2390902 L207.773611,19.2390902 L207.773611,22.1106366 L204.372405,22.1106366 C203.160482,22.2270506 202.96501,22.4986834 202.96501,24.3225034 L202.96501,31.5789788 L217.469,31.5789788 L217.469,24.3225034 C217.469,22.5374881 217.273529,22.2270506 216.061605,22.1106366 L212.699494,22.1106366 L212.699494,19.2390902 L228.024465,19.2390902 L228.024465,22.0718319 L224.857826,22.0718319 C224.740543,22.0718319 224.584165,22.1106366 224.466882,22.1106366 C222.942204,22.2270506 222.824921,22.421074 222.824921,24.3225034 L222.824921,42.0950474 C222.824921,43.9188674 223.020393,44.2293048 224.505977,44.3069142 C224.662354,44.3457189 224.818731,44.3457189 224.975109,44.3457189 L228.024465,44.3457189 L228.024465,47.1784606 L212.777683,47.1784606 L212.777683,44.3457189 L215.631568,44.3457189 C217.234435,44.3457189 217.469,44.0352814 217.469,42.0950474 L217.469,34.3729158 L202.96501,34.3729158 L202.96501,42.0950474 C203.004104,43.9188674 203.160482,44.1905001 204.294217,44.3069142 C204.4115,44.3457189 204.567877,44.3457189 204.68516,44.3457189 L207.656328,44.3457189 L207.656328,47.1784606 L192.409546,47.1784606 Z M228.806351,22.1106366 L228.806351,19.2390902 L258.087992,19.2390902 L258.087992,30.2596196 L255.35139,30.2596196 L255.312296,28.2417762 C255.273201,23.7016285 253.162108,21.9942225 247.532527,21.9942225 L239.440004,21.9942225 L239.440004,31.2685413 L243.584002,31.2685413 C246.281509,31.2685413 247.180678,30.453643 247.180678,27.659706 L247.180678,26.3791515 L249.839092,26.3791515 L249.839092,39.2623056 L247.180678,39.2623056 L247.180678,37.9041418 C247.141584,35.2654235 246.203321,34.3341111 243.857662,34.3341111 L239.440004,34.3341111 L239.440004,44.2681095 L247.532527,44.2681095 C247.92347,44.2681095 248.353508,44.2681095 248.744451,44.2293048 C253.240297,43.9576721 255.312296,41.9398286 255.35139,37.6713137 L255.35139,35.7698843 L258.087992,35.7698843 L258.087992,47.1784606 L228.806351,47.1784606 L228.806351,44.3457189 L231.777519,44.3457189 C231.894802,44.3457189 232.051179,44.3457189 232.207557,44.3069142 C233.888612,44.1905001 234.084084,43.9576721 234.084084,42.0950474 L234.084084,24.3225034 C234.084084,22.4598787 233.927706,22.2270506 232.324839,22.1106366 L228.806351,22.1106366 Z M259.651764,47.1784606 L259.651764,44.3457189 L263.561196,44.3457189 C264.499459,44.3457189 264.773119,44.0352814 264.851308,42.7547269 C264.851308,42.5218989 264.851308,42.3278755 264.851308,42.0950474 L264.851308,24.3225034 C264.851308,22.4986834 264.734025,22.2658553 263.404819,22.1106366 C263.32663,22.1106366 263.248441,22.1106366 263.209347,22.1106366 L259.690859,22.1106366 L259.690859,19.2390902 L270.441795,19.2390902 L286.509558,40.4264461 L286.509558,23.8568472 L286.470463,23.0807536 C286.431369,22.5762927 286.274992,22.3434646 286.001332,22.1882459 C285.844954,22.1494412 285.727671,22.1106366 285.571294,22.1106366 L282.287372,22.1106366 L282.287372,19.2390902 L294.015666,19.2390902 L294.015666,22.1106366 L290.888121,22.1106366 C289.754386,22.0718319 289.676197,22.1882459 289.598008,23.8568472 C289.558914,24.0120659 289.558914,24.1672847 289.558914,24.3225034 L289.558914,47.1784606 L284.906691,47.1784606 L268.057042,24.982183 L268.057042,42.0950474 C268.057042,43.9964767 268.252513,44.3457189 269.347154,44.3457189 L272.631076,44.3457189 L272.631076,47.1784606 L259.651764,47.1784606 Z M132.276749,15.2653212 L132.276634,18.4027799 C132.276634,19.0873692 132.307247,19.7454706 132.229602,20.3585787 L132.104801,21.3047549 C131.868532,23.084792 130.350509,24.414638 128.55486,24.414638 C127.215399,24.5196015 127.003905,24.7995041 127.003905,26.4089442 L127.003905,42.4333691 C127.003905,44.1477726 127.144901,44.3227117 128.55486,44.4276752 C128.660607,44.462663 128.801602,44.462663 128.907349,44.462663 L131.692018,44.462663 L131.692018,47.0167744 L117.486683,47.0167744 L117.486683,44.462663 L120.165605,44.462663 C120.271352,44.462663 120.412347,44.462663 120.553343,44.4276752 C121.963302,44.3227117 122.174796,44.1127848 122.174796,42.4333691 L122.174796,26.4089442 C122.174796,24.6595528 122.069049,24.5196015 120.518094,24.414638 C118.762024,24.414638 117.276699,23.1157481 117.04257,21.3753557 L116.909587,20.3868338 L116.921324,20.3929141 C116.847511,19.7700231 116.888069,19.1000666 116.888069,18.4026073 L116.888069,15.2653212 L114.719372,15.2653212 L119.813168,8.71430167 L119.813168,15.2653212 L119.39017,15.2653212 L119.39017,18.4026073 C119.39017,19.1288463 119.579569,20.5330452 119.962923,21.0927376 C120.259701,21.5260299 120.659464,21.7305617 121.124865,21.8255388 L123.331042,21.8255388 L123.33118,15.2653212 L121.343508,15.2653212 L124.648099,7.97619048 L127.95269,15.2653212 L125.833489,15.2653212 L125.833489,21.8255388 L128.06177,21.8255388 C128.510022,21.7313499 128.896207,21.5313936 129.186404,21.1144793 C129.578907,20.5505843 129.774359,19.1382957 129.774359,18.4026073 L129.774359,15.2653212 L129.201091,15.2653212 L129.201091,8.64101763 L134.294888,15.2653212 L132.276749,15.2653212 Z" id="TA-KITCHEN" fill="#FFFFFF"></path>
                <rect id="Rectangle" stroke="#FFFFFF" stroke-width="4.8" x="2.4" y="2.4" width="300.560836" height="61.6416667"></rect>
            </g>
        </g>
    </g>
</svg>